<svg width="175" height="175" viewBox="0 0 175 175" fill="none" xmlns="http://www.w3.org/2000/svg">
<path d="M133.94 174.893C112.773 176.831 95.0743 151.986 81.5068 139.385C74.6466 188.897 -0.0509794 184.203 2.61088e-05 133.977C0.0255289 112.882 2.61088e-05 61.3295 2.61088e-05 40.8973C2.61088e-05 33.5509 2.01474 26.1535 5.78915 19.8784C12.9554 7.7109 26.8034 -0.145687 40.9064 0.00736364C62.1502 0.032872 113.309 -0.0181447 133.94 0.00736364C184.13 0.00736364 188.899 74.7979 139.296 81.5321L162.835 105.076C188.695 129.437 169.287 175.964 133.94 174.893ZM122.541 145.431C137.128 160.481 160.412 137.166 145.391 122.575L104.587 81.7617H81.7618C81.7618 83.981 81.7618 103.01 81.7618 104.617L117.032 139.895L122.541 145.431ZM24.7122 134.003C24.3807 154.92 57.3557 154.996 57.0242 134.003V40.8973C57.3047 30.4644 46.2875 22.1741 36.3414 25.3882C35.9079 25.5157 35.4999 25.6433 35.1173 25.7963C28.8691 28.1176 24.5337 34.5202 24.7122 41.2034C24.7122 41.2034 24.7122 134.003 24.7122 134.003ZM133.94 57.0441C154.904 57.3757 154.878 24.3934 133.94 24.725H78.523C82.7309 33.6019 81.6598 47.4274 81.7363 57.0441C84.7457 57.0441 132.461 57.0441 133.94 57.0441Z" fill="#34E0A1"/>
</svg>
