<?xml version="1.0" encoding="utf-8"?>
<!-- Generator: Adobe Illustrator 23.0.3, SVG Export Plug-In . SVG Version: 6.00 Build 0)  -->
<svg version="1.1" id="Layer_1" xmlns="http://www.w3.org/2000/svg" xmlns:xlink="http://www.w3.org/1999/xlink" x="0px" y="0px"
	 viewBox="0 0 512 512" style="enable-background:new 0 0 512 512;" xml:space="preserve">
<style type="text/css">
	.st0{display:none;}
	.st1{display:inline;fill:#34495E;}
	.st2{fill:#34495E;}
</style>
<g class="st0">
	<path class="st1" d="M185.7,127.4c10.2-0.2,27.4,6.3,44.3,13.2c27.7,11.1,32,11.6,59.7,0.2c16.4-6.7,33.1-12.2,50.8-14
		c27.2-2.8,52.2,3.6,75.5,17.6c11.5,7,21.7,15.4,29.9,26.1c2.8,3.6,2.9,5.6-1.3,8.4c-46.5,30.6-63.2,91.7-39,142.3
		c11.3,23.6,29.2,40.7,52.6,52c3.7,1.8,4.3,3.4,2.9,7.2c-11.8,32.8-28.5,62.7-50.6,89.6c-5.3,6.4-10.7,12.7-16.7,18.6
		c-18.2,18.1-39.4,23.6-64.2,16.9c-10.8-2.9-20.9-7.7-31.4-11.3c-28.2-9.8-55.1-4.6-81.6,6.7c-9.6,4.1-19.5,6.7-29.8,7.8
		c-14.9,1.6-27.9-3.5-39.1-13.1c-22.3-19-39.5-42.2-54.1-67.5c-15.8-27.3-26.8-56.5-34.1-87.1c-6.9-28.9-9.8-58.1-6.5-87.7
		c3-27.3,11.3-52.9,27.7-75.1C104.5,146,136.4,128.3,185.7,127.4z"/>
	<path class="st1" d="M255.9,110.4c1.4-36.4,18.4-64.2,47.3-85.3c14.9-11,31.8-17.2,49.9-20.5C357,3.9,358,5,358,8.8
		c0.3,41.6-16.9,74.4-50.1,98.6c-13.4,9.8-29.3,14-46.1,13.8c-4.5,0-6.5-1.2-5.9-5.9C256.1,113.7,255.9,112,255.9,110.4z"/>
</g>
<g>
	<path class="st2" d="M55.1,399.1L217,422.8V267.4H55.1V399.1z M55.1,244.6H217V89.2L55.1,112.9V244.6z M239,425.3l217.5,31.9V267.4
		H239V425.3z M239,86.7v158.6h217.5V54.9L239,86.7z"/>
</g>
</svg>
